<svg width="200" height="33" viewBox="0 0 200 33" xmlns="http://www.w3.org/2000/svg" preserveAspectRatio="xMinYMid meet"><path d="M189.017 11.546v2.89h6.614l-7.017 10.221v2.102h11.386v-2.89h-7.263l7.044-10.189v-2.133h-10.763zm-10.346 0v15.213h3.47v-7.612c0-1.91 1.457-4.014 4.631-4.634v-3.195c-2.179.12-4.05 1.556-4.818 2.678h-.031l-.246-2.449h-3.005zm-13.67-.294c1.508-.125 3.143-.162 4.722-.162 3.72 0 5.94 1.438 5.94 5.502v10.167h-3.12l-.155-1.522h-.041c-1.07 1.153-2.624 1.826-4.614 1.826-2.636 0-4.731-1.707-4.731-5.091 0-3.147 2.624-6.077 9.191-4.683v-.916c0-1.813-1.063-2.32-3.158-2.32-1.286 0-2.376.087-4.034.229v-3.03zm7.192 8.444c-2.782-.708-5.565.162-5.565 2.312 0 1.426.947 2.265 2.358 2.202 1.112-.049 2.337-.543 3.206-1.313v-3.201zm-18.931 1.574c.441-.282.944-.596 1.416-.972l3.808 6.461h3.903l-5.13-8.688c1.888-1.851 3.431-4.015 4.721-6.524h-3.682c-1.29 2.29-3.116 4.423-5.036 6.054v-12.139l-3.47.402v20.895h3.47v-5.489zm-19.453-2.07v-.062c0-4.679 2.277-8.047 6.987-8.047 4.367 0 6.394 2.526 6.394 7.829 0 .561-.04 1.336-.1 1.907h-9.641c.249 2.143 1.498 3.423 4.061 3.423 1.622 0 3.146-.152 4.558-.337v2.906c-1.587.249-2.934.397-4.649.397-4.99 0-7.61-2.495-7.61-8.016zm3.587-.96h6.269c0-2.38-.624-4.26-2.963-4.26-2.433 0-3.244 2.004-3.306 4.26zm-15.693-12.779v21.298h11.253v-3.444h-7.461v-17.853h-3.792zm-15.443 6.085c1.098 4.329 3.67 12.49 5.014 15.669-.868 1.965-2.274 2.958-4.919 2.81v2.729c5.712.766 7.265-3.485 8.343-5.995 1.078-2.51 3.827-10.884 4.956-15.213h-3.638c-.627 2.854-2.196 8.469-3.011 11.323h-.063c-.847-2.823-2.415-8.437-3.011-11.323h-3.67zm-15.136 0v15.213h3.47v-8.001c0-2.422 1.89-4.359 3.586-4.478 1.871-.132 2.823.837 2.823 3.311v9.168h3.47v-9.883c0-3.875-1.781-5.786-5.369-5.786-2.124 0-3.881 1.199-4.717 2.51h-.041c-.062-.544-.202-2.054-.202-2.054h-3.02zm-13.67-.294c1.508-.125 3.143-.162 4.722-.162 3.72 0 5.94 1.438 5.94 5.502v10.167h-3.12l-.155-1.522h-.041c-1.07 1.153-2.624 1.826-4.614 1.826-2.636 0-4.731-1.707-4.731-5.091 0-3.147 2.624-6.077 9.191-4.683v-.916c0-1.813-1.063-2.32-3.158-2.32-1.286 0-2.376.087-4.034.229v-3.03zm7.192 8.444c-2.782-.708-5.565.162-5.565 2.312 0 1.426.947 2.265 2.358 2.202 1.112-.049 2.337-.543 3.206-1.313v-3.201zm-24.784-8.15v15.213h3.47v-8.001c0-2.422 1.89-4.359 3.586-4.478 1.871-.132 2.823.837 2.823 3.311v9.168h3.47v-9.883c0-3.875-1.781-5.786-5.369-5.786-2.124 0-3.881 1.199-4.717 2.51h-.041c-.062-.544-.202-2.054-.202-2.054h-3.02zm-16.706-6.085v3.444h8.911l-9.471 14.911v2.942h14.401v-3.444h-9.606l9.448-14.978v-2.875h-13.682zm-25.438 20.026l5.021 5.835 5.005-3.636-4.886-8.084c-2.207 1.361-4.37 3.999-5.139 5.885zm-7.217 5.826c4.125-8.414 12.005-14.646 21.446-16.506l-1.919-5.91c-11.455 1.293-21.201 8.236-26.416 17.985l6.889 4.431zm1.503-20.066l-10.093-2.377-1.91 5.893 7.008 2.958c1.437-1.454 3.043-2.721 4.81-3.804 2.392-1.471 4.481-2.444 8.031-3.661l-.786-9.36h-6.188l-.871 10.35z" fill="#00C3A5"/></svg>